<svg width="32" height="31" viewBox="0 0 32 31" fill="none" xmlns="http://www.w3.org/2000/svg">
<mask id="mask0_6_199" style="mask-type:alpha" maskUnits="userSpaceOnUse" x="0" y="0" width="32" height="31">
<rect width="32" height="31" fill="#D9D9D9"/>
</mask>
<g mask="url(#mask0_6_199)">
<path d="M8.66668 25.8333C6.64445 25.8333 4.91668 25.1552 3.48334 23.799C2.05001 22.4427 1.33334 20.7851 1.33334 18.826C1.33334 17.1469 1.85557 15.6507 2.90001 14.3375C3.94445 13.0243 5.31112 12.1847 7.00001 11.8187C7.55557 9.83819 8.66668 8.23437 10.3333 7.00729C12 5.7802 13.8889 5.16666 16 5.16666C18.6 5.16666 20.8056 6.04392 22.6167 7.79843C24.4278 9.55295 25.3333 11.6896 25.3333 14.2083C26.8667 14.3806 28.1389 15.021 29.15 16.1297C30.1611 17.2384 30.6667 18.5354 30.6667 20.0208C30.6667 21.6354 30.0833 23.0078 28.9167 24.138C27.75 25.2682 26.3333 25.8333 24.6667 25.8333H8.66668ZM8.66668 23.25H24.6667C25.6 23.25 26.3889 22.9378 27.0333 22.3135C27.6778 21.6892 28 20.925 28 20.0208C28 19.1167 27.6778 18.3524 27.0333 17.7281C26.3889 17.1038 25.6 16.7917 24.6667 16.7917H22.6667V14.2083C22.6667 12.4215 22.0167 10.8984 20.7167 9.63906C19.4167 8.37968 17.8445 7.75 16 7.75C14.1556 7.75 12.5833 8.37968 11.2833 9.63906C9.98334 10.8984 9.33334 12.4215 9.33334 14.2083H8.66668C7.37779 14.2083 6.27779 14.6496 5.36668 15.5323C4.45557 16.4149 4.00001 17.4806 4.00001 18.7292C4.00001 19.9778 4.45557 21.0434 5.36668 21.926C6.27779 22.8087 7.37779 23.25 8.66668 23.25Z" fill="#F5F5F5"/>
</g>
</svg>
