<svg width="24" height="24" viewBox="0 0 24 24" fill="none" xmlns="http://www.w3.org/2000/svg">
<mask id="mask0_6_208" style="mask-type:alpha" maskUnits="userSpaceOnUse" x="0" y="0" width="24" height="24">
<rect width="24" height="24" fill="#D9D9D9"/>
</mask>
<g mask="url(#mask0_6_208)">
<path d="M13.3 20.725C13.2 20.8083 13.0958 20.875 12.9875 20.925C12.8792 20.975 12.7583 21 12.625 21C12.4917 21 12.3583 20.9708 12.225 20.9125C12.0917 20.8542 11.975 20.775 11.875 20.675C11.1917 19.9417 10.6875 19.1917 10.3625 18.425C10.0375 17.6583 9.875 16.85 9.875 16C9.875 15.3833 9.96667 14.7333 10.15 14.05C10.3333 13.3667 10.65 12.4833 11.1 11.4C11.4833 10.45 11.75 9.72083 11.9 9.2125C12.05 8.70417 12.125 8.23333 12.125 7.8C12.125 7.23333 12 6.70417 11.75 6.2125C11.5 5.72083 11.1083 5.225 10.575 4.725C10.475 4.625 10.3958 4.50833 10.3375 4.375C10.2792 4.24167 10.25 4.10833 10.25 3.975C10.25 3.84167 10.275 3.72083 10.325 3.6125C10.375 3.50417 10.4417 3.4 10.525 3.3C10.625 3.2 10.7375 3.125 10.8625 3.075C10.9875 3.025 11.1167 3 11.25 3C11.3833 3 11.5083 3.025 11.625 3.075C11.7417 3.125 11.85 3.19167 11.95 3.275C12.6833 3.95833 13.2292 4.675 13.5875 5.425C13.9458 6.175 14.125 6.96667 14.125 7.8C14.125 8.38333 14.0375 8.99583 13.8625 9.6375C13.6875 10.2792 13.3833 11.1167 12.95 12.15C12.5333 13.15 12.25 13.9167 12.1 14.45C11.95 14.9833 11.875 15.4917 11.875 15.975C11.875 16.5583 11.9958 17.1208 12.2375 17.6625C12.4792 18.2042 12.85 18.75 13.35 19.3C13.4333 19.4 13.5 19.5083 13.55 19.625C13.6 19.7417 13.625 19.8667 13.625 20C13.625 20.1333 13.6 20.2625 13.55 20.3875C13.5 20.5125 13.4167 20.625 13.3 20.725ZM18.175 20.725C18.075 20.8083 17.9708 20.875 17.8625 20.925C17.7542 20.975 17.6333 21 17.5 21C17.3667 21 17.2333 20.9708 17.1 20.9125C16.9667 20.8542 16.85 20.775 16.75 20.675C16.0667 19.9417 15.5625 19.1958 15.2375 18.4375C14.9125 17.6792 14.75 16.875 14.75 16.025C14.75 15.4083 14.8417 14.75 15.025 14.05C15.2083 13.35 15.525 12.4667 15.975 11.4C16.3583 10.45 16.625 9.725 16.775 9.225C16.925 8.725 17 8.25833 17 7.825C17 7.25833 16.875 6.72083 16.625 6.2125C16.375 5.70417 15.9833 5.20833 15.45 4.725C15.35 4.625 15.275 4.5125 15.225 4.3875C15.175 4.2625 15.15 4.13333 15.15 4C15.15 3.86667 15.1708 3.74583 15.2125 3.6375C15.2542 3.52917 15.3167 3.425 15.4 3.325C15.5 3.225 15.6167 3.14583 15.75 3.0875C15.8833 3.02917 16.0167 3 16.15 3C16.2833 3 16.4042 3.025 16.5125 3.075C16.6208 3.125 16.725 3.19167 16.825 3.275C17.5583 3.95833 18.1042 4.675 18.4625 5.425C18.8208 6.175 19 6.96667 19 7.8C19 8.38333 18.9125 8.99583 18.7375 9.6375C18.5625 10.2792 18.2583 11.125 17.825 12.175C17.4083 13.175 17.125 13.9417 16.975 14.475C16.825 15.0083 16.75 15.5083 16.75 15.975C16.75 16.5583 16.875 17.1292 17.125 17.6875C17.375 18.2458 17.75 18.7917 18.25 19.325C18.3333 19.425 18.3958 19.5333 18.4375 19.65C18.4792 19.7667 18.5 19.8833 18.5 20C18.5 20.1333 18.475 20.2667 18.425 20.4C18.375 20.5333 18.2917 20.6417 18.175 20.725ZM8.425 20.725C8.325 20.8083 8.22083 20.875 8.1125 20.925C8.00417 20.975 7.88333 21 7.75 21C7.61667 21 7.48333 20.9708 7.35 20.9125C7.21667 20.8542 7.1 20.775 7 20.675C6.31667 19.9417 5.8125 19.1958 5.4875 18.4375C5.1625 17.6792 5 16.875 5 16.025C5 15.4083 5.09167 14.75 5.275 14.05C5.45833 13.35 5.775 12.4667 6.225 11.4C6.60833 10.45 6.875 9.725 7.025 9.225C7.175 8.725 7.25 8.25833 7.25 7.825C7.25 7.25833 7.125 6.72083 6.875 6.2125C6.625 5.70417 6.23333 5.20833 5.7 4.725C5.58333 4.625 5.5 4.5125 5.45 4.3875C5.4 4.2625 5.375 4.13333 5.375 4C5.375 3.86667 5.4 3.74167 5.45 3.625C5.5 3.50833 5.56667 3.4 5.65 3.3C5.75 3.2 5.8625 3.125 5.9875 3.075C6.1125 3.025 6.24167 3 6.375 3C6.50833 3 6.63333 3.025 6.75 3.075C6.86667 3.125 6.975 3.19167 7.075 3.275C7.80833 3.95833 8.35417 4.67083 8.7125 5.4125C9.07083 6.15417 9.25 6.95 9.25 7.8C9.25 8.38333 9.16667 8.99583 9 9.6375C8.83333 10.2792 8.53333 11.1167 8.1 12.15C7.68333 13.15 7.4 13.9167 7.25 14.45C7.1 14.9833 7.025 15.4917 7.025 15.975C7.025 16.5583 7.14583 17.1292 7.3875 17.6875C7.62917 18.2458 8 18.7917 8.5 19.325C8.58333 19.425 8.64583 19.5333 8.6875 19.65C8.72917 19.7667 8.75 19.8833 8.75 20C8.75 20.1333 8.725 20.2667 8.675 20.4C8.625 20.5333 8.54167 20.6417 8.425 20.725Z" fill="#F5F5F5"/>
</g>
</svg>
