<svg width="28" height="26" viewBox="0 0 28 26" fill="none" xmlns="http://www.w3.org/2000/svg">
<mask id="mask0_6_128" style="mask-type:alpha" maskUnits="userSpaceOnUse" x="0" y="0" width="28" height="26">
<rect width="28" height="26" fill="#D9D9D9"/>
</mask>
<g mask="url(#mask0_6_128)">
<path d="M14 23.2917C11.4139 23.2917 9.2118 22.4611 7.39374 20.8C5.57568 19.1389 4.66666 17.1167 4.66666 14.7333C4.66666 13.5958 4.90485 12.508 5.38124 11.4698C5.85763 10.4316 6.53332 9.51528 7.40832 8.72083L14 2.70833L20.5917 8.72083C21.4667 9.51528 22.1423 10.4316 22.6187 11.4698C23.0951 12.508 23.3333 13.5958 23.3333 14.7333C23.3333 17.1167 22.4243 19.1389 20.6062 20.8C18.7882 22.4611 16.5861 23.2917 14 23.2917ZM6.99999 14.7333H21C21 13.8847 20.825 13.0767 20.475 12.3094C20.125 11.542 19.6194 10.8694 18.9583 10.2917L14 5.74167L9.04166 10.2917C8.38055 10.8694 7.87499 11.542 7.52499 12.3094C7.17499 13.0767 6.99999 13.8847 6.99999 14.7333Z" fill="#F5F5F5"/>
</g>
</svg>
