<svg width="50" height="47" viewBox="0 0 50 47" fill="none" xmlns="http://www.w3.org/2000/svg">
<mask id="mask0_7_503" style="mask-type:alpha" maskUnits="userSpaceOnUse" x="0" y="0" width="50" height="47">
<rect width="50" height="47" fill="#D9D9D9"/>
</mask>
<g mask="url(#mask0_7_503)">
<path d="M25 23.5C26.1458 23.5 27.1267 23.1165 27.9427 22.3495C28.7587 21.5825 29.1667 20.6604 29.1667 19.5833C29.1667 18.5063 28.7587 17.5842 27.9427 16.8172C27.1267 16.0502 26.1458 15.6667 25 15.6667C23.8542 15.6667 22.8733 16.0502 22.0573 16.8172C21.2413 17.5842 20.8333 18.5063 20.8333 19.5833C20.8333 20.6604 21.2413 21.5825 22.0573 22.3495C22.8733 23.1165 23.8542 23.5 25 23.5ZM25 37.8938C29.2361 34.2382 32.3785 30.9172 34.4271 27.9307C36.4757 24.9443 37.5 22.2924 37.5 19.975C37.5 16.4174 36.2934 13.5043 33.8802 11.2359C31.467 8.96754 28.5069 7.83334 25 7.83334C21.493 7.83334 18.533 8.96754 16.1198 11.2359C13.7066 13.5043 12.5 16.4174 12.5 19.975C12.5 22.2924 13.5243 24.9443 15.5729 27.9307C17.6215 30.9172 20.7639 34.2382 25 37.8938ZM25 43.0833C19.4097 38.6118 15.2344 34.4585 12.474 30.6234C9.71354 26.7884 8.33333 23.2389 8.33333 19.975C8.33333 15.0792 10.0087 11.1788 13.3594 8.27396C16.7101 5.3691 20.5903 3.91667 25 3.91667C29.4097 3.91667 33.2899 5.3691 36.6406 8.27396C39.9913 11.1788 41.6667 15.0792 41.6667 19.975C41.6667 23.2389 40.2865 26.7884 37.526 30.6234C34.7656 34.4585 30.5903 38.6118 25 43.0833Z" fill="#ED742F"/>
</g>
</svg>
